<svg xmlns="http://www.w3.org/2000/svg" viewBox="0 0 151.5 41.784">
<path fill="#FFFFFF" d="M115.198,12.489c-1.581-1.851-3.941-2.958-7.036-2.958c-6.111,0-10.591,4.733-10.591,11.075
	c0,6.342,4.48,11.075,10.591,11.075c3.082,0,5.401-1.098,6.982-2.933v0.607c0,5.179-2.335,8.107-6.726,8.107
	c-1.887,0-4.588-1.119-5.869-2.326l-2.083,3.735c1.937,1.685,4.811,2.914,8.003,2.914c6.993,0,11.25-4.971,11.25-12.188V10.022
	h-3.145L115.198,12.489L115.198,12.489z M108.646,27.349c-3.796,0-6.363-2.857-6.363-6.787c0-3.885,2.567-6.743,6.363-6.743
	s6.364,2.858,6.364,6.743C115.01,24.491,112.441,27.349,108.646,27.349 M0,31.189h4.964L21.382,1.793v29.396h4.74V1h-9.262L0,31.189
	z M35.376,12.888l-1.597-2.865h-3.19v21.167h4.645V21.006c0.009-3.874,2.64-6.697,6.43-6.697h0.783v-4.287h-0.783
	C38.625,10.022,36.801,10.839,35.376,12.888 M84.105,9.531c-6.476,0-11.075,4.746-11.075,11.075s4.599,11.075,11.075,11.075
	S95.18,26.935,95.18,20.606S90.582,9.531,84.105,9.531 M84.105,27.357c-3.796,0-6.364-2.83-6.364-6.751
	c0-3.921,2.568-6.751,6.364-6.751c3.795,0,6.364,2.83,6.364,6.751C90.469,24.528,87.901,27.357,84.105,27.357 M126.271,1.291
	c-1.688,0-2.975,1.286-2.975,3.015c0,1.688,1.287,2.975,2.975,2.975c1.729,0,3.056-1.286,3.056-2.975
	C129.327,2.577,128,1.291,126.271,1.291 M123.989,31.189h4.644V10.022h-4.644V31.189z M143.329,27.352
	c-3.796,0-6.39-2.858-6.39-6.743c0-3.886,2.594-6.748,6.39-6.748c2.261,0,3.995,1.04,5.154,2.33l3.017-3.097
	c-1.974-2.146-4.764-3.562-8.197-3.562c-6.397,0-11.072,4.766-11.072,11.077c0,6.311,4.674,11.072,11.072,11.072
	c3.433,0,6.223-1.417,8.197-3.563l-3.016-3.096C147.325,26.311,145.59,27.352,143.329,27.352 M58.271,27.29
	c-2.91,0-4.348-1.749-4.348-5.412V14.31h7.491v-4.288h-7.491V4.296h-4.645v5.727h-4.354v4.288h4.354v7.661
	c0,6.479,2.598,9.473,8.833,9.473c1.178,0,2.386-0.219,3.436-0.569l-0.775-3.9C59.86,27.204,59.025,27.29,58.271,27.29
	 M65.036,31.189h4.644V1h-4.644V31.189z"/>
</svg>
